<?xml version="1.0" encoding="utf-8"?>
<!-- Generator: Adobe Illustrator 17.1.0, SVG Export Plug-In . SVG Version: 6.00 Build 0)  -->
<!DOCTYPE svg PUBLIC "-//W3C//DTD SVG 1.1//EN" "http://www.w3.org/Graphics/SVG/1.1/DTD/svg11.dtd">
<svg version="1.1" id="Layer_1" xmlns="http://www.w3.org/2000/svg" xmlns:xlink="http://www.w3.org/1999/xlink" x="0px" y="0px"
	 viewBox="0 0 250 250" enable-background="new 0 0 250 250" xml:space="preserve">
<rect fill="none" width="250" height="250"/>
<path fill="#FFFFFF" d="M197,148c0-39.8-32.2-72-72-72s-72,32.2-72,72c0,30.9,19.5,57.2,46.8,67.5c4.4,5.6,9.7,10.3,16.2,13.5
	c36,18,71.4,8,72,9v-45h18L197,148z M125,202c-29.8,0-54-24.2-54-54s24.2-54,54-54s54,24.2,54,54S154.8,202,125,202z"/>
<rect x="116" y="4" fill="#FFFFFF" width="18" height="54"/>
<rect x="183.5" y="27.3" transform="matrix(0.8575 0.5145 -0.5145 0.8575 54.9608 -91.4189)" fill="#FFFFFF" width="18" height="52.5"/>
<rect x="31.3" y="44.5" transform="matrix(0.5145 0.8575 -0.8575 0.5145 73.7924 -23.3314)" fill="#FFFFFF" width="52.5" height="18"/>
</svg>
