<?xml version="1.0" encoding="utf-8"?>
<!-- Generator: Adobe Illustrator 17.1.0, SVG Export Plug-In . SVG Version: 6.00 Build 0)  -->
<!DOCTYPE svg PUBLIC "-//W3C//DTD SVG 1.1//EN" "http://www.w3.org/Graphics/SVG/1.1/DTD/svg11.dtd">
<svg version="1.1" id="Layer_1" xmlns="http://www.w3.org/2000/svg" xmlns:xlink="http://www.w3.org/1999/xlink" x="0px" y="0px"
	 viewBox="0 0 250 250" enable-background="new 0 0 250 250" xml:space="preserve">
<rect fill="none" width="250" height="250"/>
<g>
	<rect x="176.9" y="113.9" fill="#FFFFFF" width="33.3" height="99.9"/>
	<rect x="132.5" y="158.3" fill="#FFFFFF" width="33.3" height="55.5"/>
	<rect x="88.1" y="180.5" fill="#FFFFFF" width="33.3" height="33.3"/>
	<rect x="43.7" y="191.6" fill="#FFFFFF" width="33.3" height="22.2"/>
</g>
<path fill="#FFFFFF" d="M165.8,36.2L181.6,52c-42,52.4-99.1,81.8-121.3,91.9c-1.7-0.7-3.5-1-5.5-1c-8.5,0-15.4,6.9-15.4,15.4
	s6.9,15.4,15.4,15.4c6.3,0,11.8-3.8,14.1-9.3c23.7-10.6,83.1-40.9,128.4-96.6l12.8,12.8V36.2H165.8z M54.8,165.1
	c-3.7,0-6.8-3-6.8-6.8s3-6.8,6.8-6.8c3.7,0,6.8,3,6.8,6.8S58.5,165.1,54.8,165.1z"/>
</svg>
